<svg width="36.777832" height="62.955811" viewBox="0 0 36.7778 62.9558" fill="none" xmlns="http://www.w3.org/2000/svg" xmlns:xlink="http://www.w3.org/1999/xlink">
	<desc>
			Created with Pixso.
	</desc>
	<defs/>
	<path id="Vector" d="M12.9 62.87L12.9 2.57C14.16 1.75 16.7 0.34 20.2 0.05C25.2 -0.37 28.87 1.79 30.09 2.57C31.18 3.33 32.66 4.55 33.95 6.4C36.35 9.81 36.71 13.31 36.77 14.91C36.77 30.89 36.77 46.88 36.77 62.86L28.45 62.86C28.45 46.85 28.45 30.83 28.45 14.82C28.42 14.21 28.19 10.6 25.33 8.65C25.05 8.46 24.23 7.95 23.07 7.68C20.47 7.06 17.73 7.94 15.9 9.93C16.44 9.88 19.24 9.67 21.7 11.71C22.03 11.98 22.32 12.26 22.57 12.56C22.65 12.64 23.23 13.31 23.7 14.21C24.48 15.71 24.63 17.25 24.67 17.96C24.67 23.19 24.67 28.44 24.67 33.67C21.71 33.67 18.75 33.66 15.79 33.66L15.79 36.1C18.75 36.1 21.71 36.1 24.67 36.1C24.67 45.02 24.66 53.95 24.66 62.87C20.74 62.87 16.83 62.87 12.9 62.87Z" fill="#2F3340" fill-opacity="1.000000" fill-rule="nonzero"/>
	<path id="Vector" d="M12.93 2.6C11.36 4.12 10.07 5.91 9.24 7.9C8.82 8.89 8.58 9.93 8.44 10.99C8.31 12.04 8.34 13.12 8.38 14.2C8.43 15.29 8.52 16.39 8.49 17.5C8.48 18.62 8.34 19.74 8.05 20.82C7.47 22.99 6.39 24.97 5.02 26.7C4.34 27.58 3.6 28.39 2.86 29.19C2.12 29.99 1.35 30.78 0.78 31.68C0.51 32.14 0.3 32.64 0.29 33.15C0.27 33.41 0.32 33.66 0.39 33.91L0.54 34.26L0.74 34.59C1.05 34.99 1.49 35.3 1.95 35.56C2.41 35.82 2.91 36.05 3.4 36.29C3.9 36.54 4.4 36.81 4.85 37.2C4.95 37.31 5.07 37.41 5.17 37.51L5.44 37.88L5.65 38.3C5.7 38.45 5.73 38.6 5.77 38.75C5.89 39.36 5.79 40 5.55 40.54C5.32 41.08 5 41.55 4.72 42.02C4.44 42.47 4.16 42.92 4.09 43.37C4.01 43.8 4.12 44.24 4.41 44.6C4.7 44.95 5.12 45.24 5.57 45.45C6.03 45.68 6.54 45.83 7.04 45.96L8.14 46.25L7.11 46.75C6.71 46.95 6.33 47.2 6 47.51C5.92 47.58 5.84 47.66 5.76 47.75L5.52 48.01C5.36 48.18 5.22 48.36 5.14 48.51C5.09 48.59 5.07 48.66 5.05 48.74C5.05 48.8 5.05 48.88 5.05 48.92C5.06 48.99 5.21 49.17 5.37 49.33C5.69 49.66 6.06 49.99 6.42 50.31L7.54 51.27L7.6 51.33C7.64 51.37 7.69 51.43 7.73 51.48C7.79 51.57 7.84 51.68 7.87 51.75C7.89 51.84 7.91 51.92 7.92 51.98C7.94 52.06 7.95 52.13 7.96 52.2C7.98 52.48 7.98 52.73 7.97 52.99C7.92 54 7.81 54.98 7.73 55.96C7.66 56.93 7.6 57.9 7.68 58.86C7.71 59.34 7.77 59.81 7.91 60.25C7.96 60.48 8.06 60.68 8.16 60.88C8.27 61.08 8.41 61.25 8.57 61.41C9.23 62.05 10.19 62.36 11.13 62.55C12.09 62.74 13.07 62.8 14.06 62.82L14.06 62.9C13.07 62.97 12.08 62.97 11.08 62.85C10.1 62.72 9.07 62.46 8.26 61.75C8.06 61.56 7.88 61.37 7.74 61.14C7.61 60.9 7.49 60.67 7.4 60.42C7.23 59.92 7.13 59.41 7.08 58.91C6.98 57.9 7.01 56.9 7.05 55.91C7.1 54.92 7.19 53.93 7.2 52.97C7.2 52.73 7.19 52.5 7.17 52.29C7.16 52.18 7.14 52.08 7.11 52.02C7.11 51.99 7.11 51.98 7.1 51.98C7.09 51.97 7.09 51.95 7.09 51.95C7.09 51.96 7.1 51.96 7.1 51.96L7.02 51.9L5.89 50.94C5.51 50.61 5.14 50.3 4.77 49.93C4.59 49.73 4.37 49.55 4.25 49.15C4.15 48.76 4.25 48.41 4.39 48.12C4.54 47.84 4.72 47.65 4.9 47.45L5.15 47.17C5.24 47.07 5.34 46.98 5.44 46.89C5.84 46.53 6.29 46.23 6.78 46.01L6.85 46.79C6.31 46.64 5.76 46.45 5.24 46.2C4.72 45.94 4.2 45.59 3.82 45.09C3.42 44.59 3.24 43.88 3.37 43.24C3.5 42.59 3.83 42.11 4.13 41.64C4.44 41.17 4.74 40.74 4.95 40.28C5.16 39.82 5.25 39.34 5.17 38.87C5.11 38.39 4.86 37.98 4.48 37.63C4.11 37.28 3.66 37 3.19 36.74C2.72 36.47 2.23 36.23 1.75 35.93C1.28 35.63 0.81 35.29 0.46 34.81L0.24 34.43L0.09 34.02C0.02 33.74 -0.02 33.45 0 33.16C0.02 32.57 0.26 32.03 0.56 31.56C1.16 30.61 1.96 29.85 2.69 29.03C3.43 28.23 4.14 27.4 4.77 26.51C6.03 24.75 6.98 22.76 7.44 20.67C7.94 18.58 7.79 16.42 7.7 14.23C7.65 13.13 7.66 12.01 7.82 10.9C7.99 9.79 8.3 8.7 8.78 7.69C9.72 5.66 11.16 3.91 12.87 2.54L12.93 2.6Z" fill="#2F3340" fill-opacity="1.000000" fill-rule="nonzero"/>
</svg>
