<svg width="23" height="38" viewBox="0 0 23 38" fill="none" xmlns="http://www.w3.org/2000/svg">
<path d="M8.03223 37.904V1.55339C8.80461 1.05832 10.3747 0.204324 12.5399 0.0310492C15.6168 -0.216486 17.896 1.08307 18.643 1.55339C19.3268 2.01133 20.2258 2.74156 21.0235 3.85547C22.505 5.91002 22.7202 8.02645 22.7582 8.99184C22.7582 18.6333 22.7582 28.2625 22.7582 37.904H17.6301C17.6301 28.2501 17.6301 18.5962 17.6301 8.94233C17.6174 8.57103 17.4655 6.39271 15.7054 5.21692C15.5282 5.10553 15.0343 4.79611 14.3126 4.63521C12.7172 4.26391 11.0205 4.78373 9.89355 5.99665C10.2228 5.9719 11.9448 5.83576 13.4643 7.06106C13.6668 7.22196 13.8441 7.39523 14.0087 7.56851C14.0594 7.61801 14.4139 8.01407 14.7051 8.57103C15.1863 9.47453 15.2749 10.4028 15.3003 10.8236C15.3003 13.9797 15.3003 17.1358 15.3003 20.3042C13.4769 20.3042 11.6536 20.3042 9.81758 20.2918V21.7647C11.6409 21.7647 13.4769 21.7647 15.3003 21.7647C15.3003 27.1486 15.3003 32.5201 15.3003 37.904C12.8691 37.904 10.4507 37.904 8.03223 37.904Z" fill="#2F3340"/>
<path d="M8.05764 1.56539C7.09533 2.48127 6.29762 3.55805 5.77847 4.7586C5.52523 5.35268 5.37329 5.9839 5.28465 6.61511C5.20868 7.25871 5.22134 7.9023 5.24666 8.55827C5.28465 9.21424 5.3353 9.88259 5.30997 10.5509C5.30997 11.2193 5.20868 11.9 5.03141 12.556C4.67687 13.8679 4.00578 15.0561 3.17008 16.1081C2.75224 16.6403 2.2964 17.123 1.84057 17.6057C1.38473 18.0884 0.903573 18.5711 0.561697 19.1157C0.39709 19.3879 0.27047 19.6974 0.257808 20.0068C0.245146 20.1553 0.283133 20.3162 0.321119 20.4647L0.409755 20.6751L0.536375 20.8732C0.726306 21.1207 1.00487 21.294 1.28344 21.4549C1.57466 21.6158 1.87855 21.7519 2.18244 21.9004C2.48633 22.049 2.79022 22.2099 3.06879 22.445C3.1321 22.5069 3.20807 22.5688 3.27138 22.6307L3.43599 22.8534L3.56261 23.101C3.60059 23.1876 3.61326 23.2866 3.63858 23.3733C3.71455 23.7446 3.65124 24.1283 3.4993 24.4501C3.36002 24.7718 3.15742 25.0689 2.99282 25.3412C2.81555 25.6135 2.65094 25.8858 2.60029 26.158C2.54964 26.418 2.62562 26.6902 2.80288 26.9007C2.98015 27.1111 3.23339 27.2843 3.52462 27.4205C3.80319 27.5566 4.11974 27.6556 4.43629 27.7299L5.10738 27.9032L4.47428 28.2002C4.22103 28.324 3.99312 28.4725 3.79052 28.6582C3.73988 28.7077 3.68923 28.7572 3.63858 28.8067L3.48664 28.9676C3.38534 29.0666 3.29671 29.178 3.24606 29.277C3.22073 29.3265 3.20807 29.3636 3.19541 29.4131C3.18275 29.4503 3.18275 29.4998 3.19541 29.5245C3.19541 29.5617 3.29671 29.6854 3.38534 29.7721C3.58793 29.9701 3.81585 30.1681 4.0311 30.3661L4.71486 30.9479L4.75284 30.985C4.77817 31.0097 4.80349 31.0469 4.82882 31.0716C4.8668 31.1211 4.89213 31.183 4.90479 31.2325C4.91745 31.282 4.93011 31.3315 4.94277 31.3687C4.95544 31.4182 4.95544 31.4553 4.95544 31.4924C4.9681 31.6533 4.9681 31.8142 4.9681 31.9751C4.94278 32.5816 4.8668 33.1757 4.81615 33.7574C4.7655 34.3391 4.74018 34.9332 4.77817 35.5149C4.80349 35.7996 4.84148 36.0842 4.91745 36.3565C4.95543 36.4927 5.01875 36.6164 5.08206 36.7402C5.14537 36.8516 5.234 36.963 5.3353 37.062C5.74048 37.4457 6.3356 37.6313 6.91806 37.7551C7.50051 37.8665 8.10829 37.9036 8.71607 37.916V37.9655C8.10829 38.015 7.48785 38.015 6.88007 37.9407C6.27229 37.8665 5.63919 37.7056 5.1327 37.2724C5.00608 37.161 4.90479 37.0372 4.81615 36.9011C4.72752 36.7649 4.65154 36.6164 4.6009 36.4679C4.48694 36.1709 4.43629 35.8614 4.39831 35.5644C4.335 34.9579 4.34766 34.3515 4.38564 33.7574C4.41097 33.1633 4.47428 32.5692 4.47428 31.9875C4.47428 31.839 4.47428 31.7028 4.46162 31.5791C4.44895 31.5172 4.44895 31.4553 4.42363 31.4182C4.42363 31.4058 4.41096 31.3934 4.41096 31.3934C4.41096 31.3934 4.41097 31.381 4.39831 31.381L4.36032 31.3439L3.6639 30.7622C3.43599 30.5642 3.19541 30.3785 2.96749 30.1434C2.85353 30.0196 2.72691 29.9206 2.63828 29.6731C2.57497 29.4379 2.63828 29.2275 2.72691 29.0542C2.81555 28.8809 2.9295 28.7695 3.0308 28.6458L3.19541 28.4725C3.25872 28.4106 3.30937 28.3611 3.37268 28.2992C3.61326 28.0764 3.89182 27.9032 4.19571 27.767L4.2337 28.2373C3.89182 28.1507 3.56261 28.0393 3.23339 27.8784C2.91684 27.7175 2.60029 27.5195 2.34705 27.2101C2.10647 26.913 1.99251 26.4798 2.06848 26.0962C2.14445 25.7125 2.35971 25.4154 2.53698 25.1308C2.72691 24.8461 2.91684 24.5862 3.04346 24.3139C3.17008 24.0416 3.2334 23.7446 3.18275 23.4599C3.14476 23.1752 2.99281 22.9153 2.7649 22.7173C2.53698 22.5069 2.25842 22.346 1.96719 22.1851C1.67596 22.0242 1.37207 21.8757 1.08084 21.7024C0.789615 21.5291 0.498389 21.3187 0.283134 21.0217L0.143851 20.7989L0.0552146 20.5514C0.00456629 20.3781 -0.00809501 20.2048 0.00456706 20.0315C0.0172291 19.685 0.169176 19.3508 0.346444 19.0662C0.713644 18.4968 1.20746 18.0389 1.6633 17.5438C2.11913 17.0611 2.5623 16.566 2.95483 16.0338C3.72721 14.9694 4.32233 13.7689 4.6009 12.5065C4.90479 11.244 4.81615 9.94447 4.76551 8.62015C4.74018 7.96418 4.74018 7.28346 4.84148 6.61511C4.94278 5.94677 5.1327 5.2908 5.43659 4.68434C6.01905 3.45904 6.90539 2.40701 7.95634 1.57777L8.05764 1.56539Z" fill="#2F3340"/>
</svg>
