<svg width="116" height="68" viewBox="0 0 116 68" fill="none" xmlns="http://www.w3.org/2000/svg">
<g clip-path="url(#clip0_35_71)">
<path d="M3.25126 64.4559H0.0976562V63.8799H0.371256C0.875256 63.8799 1.23526 63.5343 1.53766 62.7423L5.00806 53.3967H5.88646L5.94406 53.5407L9.94726 62.7423C10.2497 63.3903 10.5521 63.7215 10.9553 63.8367C10.9697 63.8367 10.9985 63.8511 11.0273 63.8511C11.0561 63.8511 11.1137 63.8655 11.1569 63.8655C11.2145 63.8655 11.2721 63.8799 11.2865 63.8799H11.4593V64.4559H7.18246V63.8799H7.38406C7.57126 63.8799 7.65766 63.8799 7.67206 63.8799C7.83046 63.8655 7.93126 63.8079 7.98886 63.7215C8.08966 63.5919 8.06086 63.3471 7.93126 62.9871L6.83686 60.3951H3.25126L2.41606 62.6703C2.25766 63.1743 2.22886 63.5199 2.37286 63.6927C2.43046 63.7791 2.56006 63.8799 2.93446 63.8799H3.23686V64.4559H3.25126ZM3.52486 59.6751H6.54886L4.92166 55.8303L3.52486 59.6751Z" fill="#303440"/>
<path d="M14.541 56.7231V57.6015C15.1602 57.0111 15.981 56.6223 16.7586 56.5935C16.7874 56.5935 16.8306 56.5935 16.8594 56.5935C17.4786 56.5935 18.0402 56.8239 18.4578 57.2559C18.5874 57.3855 18.6882 57.5295 18.7746 57.7167C19.3938 57.0687 20.4882 56.6367 21.309 56.5935C21.3522 56.5935 21.3954 56.5935 21.4386 56.5935C22.0434 56.5935 22.5906 56.8239 23.0226 57.2559C23.397 57.6447 23.6274 58.2351 23.6562 58.9407V58.9551V60.3519C23.6562 61.4319 23.6562 62.7423 23.6562 62.7423C23.6562 63.2463 23.7282 63.5775 23.8722 63.7503C23.9586 63.8367 24.0594 63.8799 24.2178 63.8799H24.5058V64.4559H21.0498V63.8655H21.2946C21.3522 63.8655 21.4098 63.8655 21.453 63.8511C21.5106 63.8367 21.5538 63.8223 21.6114 63.7935C21.6402 63.7791 21.6546 63.7647 21.6834 63.7359C21.8274 63.5775 21.8994 63.2463 21.8994 62.7279V62.7135C21.8994 62.1087 21.885 59.0991 21.885 58.9551C21.8706 58.0623 21.5538 57.6015 20.9346 57.6015C20.1426 57.6015 19.3506 58.1631 19.0482 58.5375C19.077 58.6671 19.077 58.7967 19.0914 58.9263V60.3231C19.0914 61.3311 19.0914 62.5839 19.0914 62.7135C19.0914 63.2175 19.1634 63.5487 19.3074 63.7215C19.3938 63.8223 19.4946 63.8511 19.653 63.8511H19.941V64.4271H16.485V63.8511H16.773C16.917 63.8511 17.0322 63.8079 17.1186 63.7215C17.2626 63.5631 17.3346 63.2319 17.3346 62.7135V62.6991C17.3346 62.0943 17.3202 59.0847 17.3202 58.9407C17.3058 58.0479 16.989 57.5871 16.3698 57.5871C15.3618 57.5871 14.6994 58.4799 14.5266 58.7391V62.7135C14.5266 63.2175 14.5986 63.5487 14.7426 63.7215C14.829 63.8079 14.9298 63.8511 15.0882 63.8511H15.3762V64.4271H11.9202V63.8367H12.1506C12.2658 63.8367 12.2802 63.8367 12.2802 63.8367C12.3954 63.8223 12.4818 63.7791 12.5538 63.7071C12.6978 63.5487 12.7698 63.2175 12.7698 62.6991V58.9119C12.7842 58.3215 12.7122 57.9327 12.5538 57.7455C12.4674 57.6447 12.3522 57.6303 12.1938 57.6159C12.1794 57.6159 12.0642 57.6159 12.0642 57.6159H11.877V57.0399L12.0786 57.0111L14.0514 56.6799H14.541V56.7231Z" fill="#303440"/>
<path d="M31.6336 62.6127C31.4896 63.3471 30.928 63.8079 30.4816 64.0671C29.9488 64.3839 29.2864 64.5711 28.7104 64.5855C28.696 64.5855 28.6384 64.5855 28.624 64.5855C28.2928 64.5855 27.9184 64.5423 27.5296 64.4703C27.1984 64.4127 26.3056 64.1391 26.1328 64.0671C26.0752 64.0527 26.0176 64.0239 26.0032 64.0239C25.9744 64.0239 25.9312 64.0383 25.9024 64.0527L25.8736 64.0671H25.4272L25.3984 61.7199H25.9312L26.0464 61.9647C26.2048 62.2671 26.392 62.5695 26.5936 62.8431C26.7088 62.9871 26.824 63.1311 26.968 63.2607C27.112 63.3903 27.2992 63.5199 27.5296 63.6351C27.9328 63.8367 28.264 63.9087 28.7248 63.8943C29.128 63.8799 29.4736 63.7647 29.7616 63.5343C30.0064 63.3327 30.1504 63.0735 30.1648 62.8143C30.1792 62.5263 30.0352 62.2527 29.7472 62.0511C29.3584 61.7775 28.696 61.5327 28.1056 61.3167L28.0624 61.3023C26.3056 60.6687 25.4128 59.8623 25.4128 58.9407C25.4128 58.2495 25.7152 57.6591 26.3056 57.2271C26.7808 56.8815 27.4432 56.6655 28.1488 56.6079C28.2496 56.5935 28.3504 56.5935 28.4512 56.5935C28.7824 56.5935 29.1136 56.6223 29.4592 56.6943C29.6176 56.7231 29.776 56.7807 29.9344 56.8383C30.1216 56.9103 30.3232 56.9679 30.5104 56.9823C30.5392 56.9823 30.5536 56.9823 30.5824 56.9679L30.64 56.9391H31.0576L31.0864 59.0415H30.5824L30.5104 58.9119C30.3664 58.6239 29.992 58.0623 29.6752 57.7743C29.5888 57.6879 29.488 57.6159 29.3872 57.5583C29.056 57.3567 28.7536 57.2847 28.3936 57.2847C28.264 57.2847 28.1344 57.3135 27.9616 57.3567C27.3424 57.5151 27.0256 57.8319 27.0112 58.3071C26.9968 58.9983 28.0768 59.3727 29.1136 59.7471L29.2432 59.7903C30.0352 60.0639 30.6832 60.3663 31.2304 60.9423C31.6336 61.3599 31.72 62.0943 31.6336 62.6127Z" fill="#303440"/>
<path d="M40.4319 63.88V64.456H36.9759V63.88H37.2639C37.4079 63.88 37.5231 63.8368 37.5951 63.7504C37.7535 63.5776 37.8255 63.2608 37.8255 62.7424V62.6992C37.8255 61.864 37.8111 59.0992 37.8111 58.9552C37.7967 58.0624 37.4799 57.6016 36.8607 57.6016C35.8527 57.6016 35.1903 58.4944 35.0319 58.7536V62.728C35.0319 63.232 35.1039 63.5632 35.2479 63.736C35.3343 63.8224 35.4351 63.8656 35.5935 63.8656H35.8815V64.4416H32.4255V63.8512H32.6127C32.6127 63.8512 32.7279 63.8512 32.7423 63.8512C32.8863 63.8512 32.9871 63.808 33.0591 63.7216C33.2031 63.5488 33.2895 63.232 33.2895 62.7136V55.7296C33.3039 55.1392 33.2319 54.7504 33.0735 54.5632C32.9871 54.4624 32.8719 54.4336 32.7279 54.4336H32.4111V53.8432L32.6127 53.8144L34.5855 53.4832H35.0463V57.5728C35.6655 56.9824 36.4863 56.5936 37.2639 56.5648C37.2927 56.5648 37.3359 56.5648 37.3647 56.5648C37.9839 56.5648 38.5311 56.7952 38.9631 57.2272C39.3375 57.616 39.5679 58.2064 39.5967 58.912V58.9264V60.3232C39.5967 61.3312 39.5967 62.584 39.5967 62.7136C39.5967 63.2176 39.6687 63.5488 39.8127 63.7216C39.8991 63.808 39.9999 63.8512 40.1583 63.8512C40.1871 63.8512 40.2591 63.8512 40.2591 63.8512H40.4319V63.88Z" fill="#303440"/>
<path d="M45.9189 59.2863C45.9189 59.0559 45.9189 58.5231 45.9189 58.4511C45.9189 58.3359 45.9045 58.2495 45.8613 58.1631C45.7605 57.9327 45.6021 57.7311 45.3573 57.5871C45.0981 57.4287 44.8101 57.3423 44.5077 57.3423C44.2917 57.3423 44.1045 57.3855 43.9173 57.5007C43.6725 57.6447 43.4997 57.8463 43.4133 58.1199C43.3701 58.2351 43.3557 58.3647 43.3413 58.4655V58.4943C43.2981 58.7247 43.2549 58.9551 43.0965 59.1423C42.9381 59.3295 42.7221 59.4303 42.5061 59.4303C42.2037 59.4303 41.9589 59.2863 41.8437 59.0415C41.6565 58.6383 41.8005 58.0767 42.0597 57.7455C42.2181 57.5439 42.4341 57.3567 42.6645 57.1983C43.2549 56.8095 44.0037 56.5935 44.7813 56.5935C45.0693 56.5935 45.3717 56.6223 45.6453 56.6799C46.1925 56.8095 46.8981 57.1119 47.2293 57.5007C47.3877 57.6735 47.5029 57.9183 47.5749 58.1487C47.6901 58.5375 47.6901 58.9695 47.6901 59.2863C47.6901 59.3295 47.6901 59.9343 47.6901 61.2591V61.2879C47.6901 61.9935 47.6901 62.7999 47.6901 62.8287C47.6901 63.1167 47.7045 63.4479 47.8341 63.6927C47.8773 63.7791 47.9493 63.8367 48.0357 63.8655C48.0933 63.8799 48.1365 63.8943 48.1653 63.8943C48.1797 63.8943 48.1797 63.8943 48.1941 63.8943C48.2085 63.8943 48.2373 63.8943 48.2373 63.8943H48.3525V64.4847H46.9845C46.2645 64.4415 46.0197 64.1103 45.9477 63.8079L45.5301 64.0671C44.9109 64.4127 44.2053 64.6143 43.5285 64.6143C43.2837 64.6143 43.0389 64.5855 42.8085 64.5279C42.3477 64.4127 41.9013 64.0959 41.6421 63.6783C41.4837 63.4335 41.3829 63.0591 41.3541 62.7999C41.3397 62.6991 41.3397 62.5983 41.3397 62.4975C41.2965 61.4031 42.0309 60.6543 42.6645 60.3375C43.4277 59.9631 44.1333 59.7903 44.7525 59.6463H44.7669C45.1557 59.5311 45.5589 59.4303 45.9189 59.2863ZM45.9045 60.1071C45.6309 60.2223 45.3717 60.2943 45.1269 60.3807C44.5221 60.5679 43.9461 60.7551 43.4565 61.2879C43.2117 61.5615 43.0821 61.9071 43.0965 62.2815V62.3247C43.0965 62.4975 43.0965 62.9727 43.6869 63.2895C43.8021 63.3471 44.0469 63.4191 44.3925 63.4191C44.7381 63.4191 45.0981 63.3471 45.4725 63.2175C45.6453 63.1599 45.8181 63.0447 45.9189 62.9871V60.1071H45.9045Z" fill="#303440"/>
<path d="M56.9778 64.4559H53.8242V63.8799H54.0978C54.6018 63.8799 54.9618 63.5343 55.2642 62.7423L58.7346 53.3967H59.613L59.6706 53.5407L63.6738 62.7423C63.9762 63.3903 64.2786 63.7215 64.6818 63.8367C64.6962 63.8367 64.725 63.8511 64.7538 63.8511C64.7826 63.8511 64.8402 63.8655 64.8834 63.8655C64.941 63.8655 64.9986 63.8799 65.013 63.8799H65.1858V64.4559H60.909V63.8799H61.1106C61.2978 63.8799 61.3842 63.8799 61.3986 63.8799C61.557 63.8655 61.6578 63.8079 61.7154 63.7215C61.8162 63.5919 61.7874 63.3471 61.6578 62.9871L60.5634 60.3951H56.9922L56.157 62.6703C55.9986 63.1743 55.9698 63.5199 56.1138 63.6927C56.1714 63.7791 56.301 63.8799 56.6754 63.8799H56.9778V64.4559ZM57.2658 59.6751H60.2898L58.6626 55.8303L57.2658 59.6751Z" fill="#303440"/>
<path d="M70.2109 57.184V55.5856C70.2109 55.0816 70.1389 54.7648 69.9805 54.592C69.8941 54.4912 69.7789 54.4768 69.6061 54.4768H69.3037V53.8864L71.4781 53.512H71.9389V63.2608C72.0109 63.808 72.2413 63.88 72.4861 63.88H72.7741V64.4704H70.7149L70.3693 63.8224C69.8221 64.3264 69.1741 64.5856 68.4973 64.5856C66.5533 64.5856 65.1421 62.9872 65.0557 60.712C65.0557 60.5968 65.0557 60.5104 65.0557 60.4384C65.1277 58.1344 66.5101 56.5792 68.4973 56.5792C69.2605 56.5792 69.8509 56.9104 70.2109 57.184ZM70.1965 58.1632C70.0237 57.976 69.5197 57.5296 68.7133 57.5296C68.4253 57.5296 68.1661 57.5872 67.9501 57.688C67.7917 57.76 67.6477 57.8752 67.5325 58.0192C67.3885 58.192 67.2733 58.3936 67.1725 58.6384C67.0861 58.8688 67.0141 59.1424 66.9565 59.4592C66.8557 60.1072 66.8557 60.8128 66.9277 61.5328C66.9565 61.8496 67.0285 62.1232 67.1149 62.3968C67.2013 62.656 67.3165 62.8864 67.4605 63.0592C67.7917 63.5056 68.3101 63.6064 68.6989 63.6064C68.9293 63.6064 69.1741 63.5632 69.4045 63.5056C69.6205 63.448 69.8221 63.3328 69.9805 63.2032C70.0381 63.16 70.1245 63.0736 70.1821 62.9872V58.1632H70.1965Z" fill="#303440"/>
<path d="M75.9997 57.3999C75.9277 57.5295 75.9421 57.7599 76.0573 58.0623L77.8285 62.2527L77.8717 62.1231C78.2029 61.1871 79.1965 58.3359 79.2253 58.2639C79.3261 57.9471 79.3981 57.6303 79.2541 57.4143C79.1965 57.3279 79.0669 57.2991 78.9661 57.2991H78.6781V56.7231H81.0829V57.2991H80.8381C80.5213 57.2991 80.2189 57.6447 80.0317 58.2063L77.8717 64.4559H76.9501L76.8925 64.3119L74.1709 57.9615C73.9261 57.3999 73.7389 57.2847 73.5085 57.2847H73.2637V56.7087H76.5469V57.2847H76.2733C76.0861 57.2991 76.0429 57.3567 75.9997 57.3999Z" fill="#303440"/>
<path d="M85.0578 63.88V64.456H81.6018V63.88H81.8898C82.0338 63.88 82.149 63.8368 82.2354 63.7504C82.3794 63.592 82.4514 63.2608 82.4514 62.7424V58.7824C82.4514 58.2784 82.3794 57.9472 82.221 57.7888C82.1346 57.688 82.0194 57.6736 81.8898 57.6736H81.5586V57.0832L81.7602 57.0544L83.7474 56.7088H84.2082V62.7424C84.2082 63.2464 84.2802 63.5776 84.4386 63.7504C84.525 63.8368 84.6258 63.88 84.7698 63.88H85.0578ZM82.1634 54.7648C82.1634 54.2032 82.6242 53.7424 83.1858 53.7424C83.7474 53.7424 84.2082 54.2032 84.2082 54.7648C84.2082 55.3264 83.7474 55.7872 83.1858 55.7872C82.6242 55.7872 82.1634 55.3264 82.1634 54.7648Z" fill="#303440"/>
<path d="M92.2 62.6127C92.056 63.3471 91.4944 63.8079 91.048 64.0671C90.5152 64.3839 89.8528 64.5711 89.2768 64.5855C89.2624 64.5855 89.2048 64.5855 89.1904 64.5855C88.8592 64.5855 88.4848 64.5423 88.096 64.4703C87.7648 64.4127 86.872 64.1391 86.6992 64.0671C86.6416 64.0527 86.584 64.0239 86.5696 64.0239C86.5408 64.0239 86.4976 64.0383 86.4688 64.0527L86.44 64.0671H85.9936L85.9648 61.7199H86.4976L86.6128 61.9647C86.7712 62.2671 86.9584 62.5695 87.16 62.8431C87.2752 62.9871 87.3904 63.1311 87.5344 63.2607C87.6784 63.3903 87.8656 63.5199 88.096 63.6351C88.4992 63.8367 88.8304 63.9087 89.2912 63.8943C89.6944 63.8799 90.04 63.7647 90.328 63.5343C90.5728 63.3327 90.7168 63.0735 90.7312 62.8143C90.7456 62.5263 90.6016 62.2527 90.3136 62.0511C89.9248 61.7775 89.2624 61.5327 88.672 61.3167L88.6288 61.3023C86.872 60.6687 85.9792 59.8623 85.9792 58.9407C85.9792 58.2495 86.2816 57.6591 86.872 57.2271C87.3472 56.8815 88.0096 56.6655 88.7152 56.6079C88.816 56.5935 88.9168 56.5935 89.0176 56.5935C89.3488 56.5935 89.68 56.6223 90.0256 56.6943C90.184 56.7231 90.3424 56.7807 90.5008 56.8383C90.688 56.9103 90.8896 56.9679 91.0768 56.9823C91.1056 56.9823 91.12 56.9823 91.1488 56.9679L91.2064 56.9391H91.624L91.6528 59.0415H91.1488L91.0768 58.9119C90.9328 58.6239 90.5584 58.0623 90.2416 57.7743C90.1552 57.6879 90.0544 57.6159 89.9536 57.5583C89.6224 57.3567 89.32 57.2847 88.96 57.2847C88.8304 57.2847 88.7008 57.3135 88.528 57.3567C87.9088 57.5151 87.592 57.8319 87.5776 58.3071C87.5632 58.9983 88.6432 59.3727 89.68 59.7471L89.8096 59.7903C90.6016 60.0639 91.2496 60.3663 91.7968 60.9423C92.2 61.3599 92.3008 62.0943 92.2 62.6127Z" fill="#303440"/>
<path d="M100.523 60.5535C100.523 61.7055 100.163 62.6703 99.4718 63.4335C98.7662 64.1967 97.9022 64.5855 96.9086 64.5855C95.9006 64.5855 95.0366 64.2111 94.3454 63.4623C93.6542 62.7135 93.3086 61.7343 93.3086 60.5679C93.3086 59.3583 93.7118 58.3647 94.5038 57.6015C95.195 56.9391 96.0302 56.5935 96.9806 56.5935C97.931 56.5935 98.7662 56.9679 99.4574 57.7023L99.4718 57.7167C100.177 58.4799 100.537 59.4303 100.523 60.5535ZM98.7518 60.6975C98.7518 59.4879 98.5502 58.5807 98.147 57.9903C97.8446 57.5583 97.4414 57.3423 96.8942 57.3423C96.3902 57.3423 96.0014 57.5583 95.699 57.9903C95.2958 58.5519 95.0942 59.4159 95.0942 60.5391C95.0942 61.6911 95.3102 62.5839 95.7278 63.2031C96.0302 63.6351 96.419 63.8511 96.9086 63.8511C97.4414 63.8511 97.8734 63.6207 98.219 63.1311C98.5646 62.6127 98.7518 61.8063 98.7518 60.6975Z" fill="#303440"/>
<path d="M103.979 56.7231V57.6735C104.555 57.1407 105.433 56.6223 106.254 56.5935C106.369 56.5935 106.47 56.5935 106.585 56.6367C106.773 56.6943 106.974 56.7951 107.104 56.9247C107.233 57.0543 107.32 57.2271 107.32 57.4287C107.334 57.6447 107.262 57.8751 107.133 58.0479C106.989 58.2495 106.787 58.3647 106.557 58.3647C106.542 58.3647 106.513 58.3647 106.499 58.3647C106.283 58.3359 106.081 58.2351 105.894 58.1199H105.88C105.793 58.0623 105.707 58.0191 105.635 57.9903C105.477 57.9327 105.318 57.8895 105.174 57.8895C105.059 57.8895 104.944 57.9183 104.857 57.9615C104.613 58.0911 104.325 58.3503 103.95 58.7535C103.95 60.4095 103.95 62.7567 103.95 62.7567C103.95 63.2751 104.022 63.5919 104.166 63.7647C104.253 63.8511 104.353 63.8943 104.512 63.8943H104.8V64.4847H101.344V63.8943H101.589C101.603 63.8943 101.603 63.8943 101.617 63.8943C101.79 63.8943 101.877 63.8655 101.977 63.7647C102.121 63.6063 102.193 63.3183 102.193 62.8719C102.193 62.7855 102.193 58.8399 102.193 58.7967C102.193 58.2927 102.121 57.9615 101.963 57.7887C101.877 57.6879 101.747 57.6735 101.574 57.6735H101.344V57.0831L103.504 56.7087H103.979V56.7231Z" fill="#303440"/>
<path d="M108.17 57.2991H107.925V56.7087H111.194V57.2991H110.92C110.747 57.2991 110.69 57.3567 110.661 57.3999C110.589 57.5295 110.603 57.7599 110.718 58.0623L112.533 62.3247C112.907 61.2447 113.886 58.4223 113.93 58.2927C114.03 58.0191 114.131 57.6303 113.987 57.4143C113.958 57.3711 113.901 57.2991 113.714 57.2991H113.426V56.7231H115.888V57.3135H115.701C115.686 57.3135 115.168 57.3135 114.909 57.9471L112.72 64.2399L111.899 66.4863C111.51 67.5519 110.733 68.2287 109.941 68.2287C109.235 68.2287 108.515 67.8687 108.515 67.1631C108.515 66.9471 108.587 66.7455 108.717 66.6015C108.861 66.4431 109.062 66.3423 109.278 66.3423C109.638 66.3423 109.84 66.5727 110.013 66.7887C110.142 66.9471 110.258 67.0767 110.402 67.0767C110.646 67.0767 110.834 66.8175 110.949 66.5871C110.978 66.5439 111.078 66.2847 111.582 64.9743L111.683 64.6863L108.803 57.9759C108.587 57.4143 108.4 57.2991 108.17 57.2991Z" fill="#303440"/>
<path d="M54.0977 43.8928V1.60005C54.9761 1.02405 56.7617 0.0304495 59.2241 -0.171151C62.7233 -0.459151 65.3153 1.05285 66.1649 1.60005C66.9425 2.13285 67.9649 2.98245 68.8721 4.27845C70.5569 6.66885 70.8017 9.13125 70.8449 10.2544C70.8449 21.472 70.8449 32.6753 70.8449 43.8928H65.0129C65.0129 32.6609 65.0129 21.4289 65.0129 10.1969C64.9985 9.76485 64.8257 7.23045 62.8241 5.86245C62.6225 5.73285 62.0609 5.37285 61.2401 5.18565C59.4257 4.75365 57.4961 5.35845 56.2145 6.76965C56.5889 6.74085 58.5473 6.58245 60.2753 8.00805C60.5057 8.19525 60.7073 8.39685 60.8945 8.59845C60.9521 8.65605 61.3553 9.11685 61.6865 9.76485C62.2337 10.8161 62.3345 11.896 62.3633 12.3856C62.3633 16.0576 62.3633 19.7296 62.3633 23.416C60.2897 23.416 58.2161 23.416 56.1281 23.4016V25.1152C58.2017 25.1152 60.2897 25.1152 62.3633 25.1152C62.3633 31.3792 62.3633 37.6288 62.3633 43.8928C59.5985 43.8928 56.8481 43.8928 54.0977 43.8928Z" fill="#303440"/>
<path d="M54.1265 1.6145C53.0321 2.6801 52.1249 3.9329 51.5345 5.3297C51.2465 6.0209 51.0737 6.7553 50.9729 7.4897C50.8865 8.2385 50.9009 8.9873 50.9297 9.7505C50.9729 10.5137 51.0305 11.2913 51.0017 12.0689C51.0017 12.8465 50.8865 13.6385 50.6849 14.4017C50.2817 15.9281 49.5185 17.3105 48.5681 18.5345C48.0929 19.1537 47.5745 19.7153 47.0561 20.2769C46.5377 20.8385 45.9905 21.4001 45.6017 22.0337C45.4145 22.3505 45.2705 22.7105 45.2561 23.0705C45.2417 23.2433 45.2849 23.4305 45.3281 23.6033L45.4289 23.8481L45.5729 24.0785C45.7889 24.3665 46.1057 24.5681 46.4225 24.7553C46.7537 24.9425 47.0993 25.1009 47.4449 25.2737C47.7905 25.4465 48.1361 25.6337 48.4529 25.9073C48.5249 25.9793 48.6113 26.0513 48.6833 26.1233L48.8705 26.3825L49.0145 26.6705C49.0577 26.7713 49.0721 26.8865 49.1009 26.9873C49.1873 27.4193 49.1153 27.8657 48.9425 28.2401C48.7841 28.6145 48.5537 28.9601 48.3665 29.2769C48.1649 29.5937 47.9777 29.9105 47.9201 30.2273C47.8625 30.5297 47.9489 30.8465 48.1505 31.0913C48.3521 31.3361 48.6401 31.5377 48.9713 31.6961C49.2881 31.8545 49.6481 31.9697 50.0081 32.0561L50.7713 32.2577L50.0513 32.6033C49.7633 32.7473 49.5041 32.9201 49.2737 33.1361C49.2161 33.1937 49.1585 33.2513 49.1009 33.3089L48.9281 33.4961C48.8129 33.6113 48.7121 33.7409 48.6545 33.8561C48.6257 33.9137 48.6113 33.9569 48.5969 34.0145C48.5825 34.0577 48.5825 34.1153 48.5969 34.1441C48.5969 34.1873 48.7121 34.3313 48.8129 34.4321C49.0433 34.6625 49.3025 34.8929 49.5473 35.1233L50.3249 35.8001L50.3681 35.8433C50.3969 35.8721 50.4257 35.9153 50.4545 35.9441C50.4977 36.0017 50.5265 36.0737 50.5409 36.1313C50.5553 36.1889 50.5697 36.2465 50.5841 36.2897C50.5985 36.3473 50.5985 36.3905 50.5985 36.4337C50.6129 36.6209 50.6129 36.8081 50.6129 36.9953C50.5841 37.7009 50.4977 38.3921 50.4401 39.0689C50.3825 39.7457 50.3537 40.4369 50.3969 41.1137C50.4257 41.4449 50.4689 41.7761 50.5553 42.0929C50.5985 42.2513 50.6705 42.3953 50.7425 42.5393C50.8145 42.6689 50.9153 42.7985 51.0305 42.9137C51.4913 43.3601 52.1681 43.5761 52.8305 43.7201C53.4929 43.8497 54.1841 43.8929 54.8753 43.9073V43.9649C54.1841 44.0225 53.4785 44.0225 52.7873 43.9361C52.0961 43.8497 51.3761 43.6625 50.8001 43.1585C50.6561 43.0289 50.5409 42.8849 50.4401 42.7265C50.3393 42.5681 50.2529 42.3953 50.1953 42.2225C50.0657 41.8769 50.0081 41.5169 49.9649 41.1713C49.8929 40.4657 49.9073 39.7601 49.9505 39.0689C49.9793 38.3777 50.0513 37.6865 50.0513 37.0097C50.0513 36.8369 50.0513 36.6785 50.0369 36.5345C50.0225 36.4625 50.0225 36.3905 49.9937 36.3473C49.9937 36.3329 49.9793 36.3185 49.9793 36.3185C49.9793 36.3185 49.9793 36.3041 49.9649 36.3041L49.9217 36.2609L49.1297 35.5841C48.8705 35.3537 48.5969 35.1377 48.3377 34.8641C48.2081 34.7201 48.0641 34.6049 47.9633 34.3169C47.8913 34.0433 47.9633 33.7985 48.0641 33.5969C48.1649 33.3953 48.2945 33.2657 48.4097 33.1217L48.5969 32.9201C48.6689 32.8481 48.7265 32.7905 48.7985 32.7185C49.0721 32.4593 49.3889 32.2577 49.7345 32.0993L49.7777 32.6465C49.3889 32.5457 49.0145 32.4161 48.6401 32.2289C48.2801 32.0417 47.9201 31.8113 47.6321 31.4513C47.3585 31.1057 47.2289 30.6017 47.3153 30.1553C47.4017 29.7089 47.6465 29.3633 47.8481 29.0321C48.0641 28.7009 48.2801 28.3985 48.4241 28.0817C48.5681 27.7649 48.6401 27.4193 48.5825 27.0881C48.5393 26.7569 48.3665 26.4545 48.1073 26.2241C47.8481 25.9793 47.5313 25.7921 47.2001 25.6049C46.8689 25.4177 46.5233 25.2449 46.1921 25.0433C45.8609 24.8417 45.5297 24.5969 45.2849 24.2513L45.1265 23.9921L45.0257 23.7041C44.9681 23.5025 44.9537 23.3009 44.9681 23.0993C44.9825 22.6961 45.1553 22.3073 45.3569 21.9761C45.7745 21.3137 46.3361 20.7809 46.8545 20.2049C47.3729 19.6433 47.8769 19.0673 48.3233 18.4481C49.2017 17.2097 49.8785 15.8129 50.1953 14.3441C50.5409 12.8753 50.4401 11.3633 50.3825 9.8225C50.3537 9.0593 50.3537 8.2673 50.4689 7.4897C50.5841 6.7121 50.8001 5.9489 51.1457 5.2433C51.8081 3.8177 52.8161 2.5937 54.0113 1.6289L54.1265 1.6145Z" fill="#303440"/>
</g>
<defs>
<clipPath id="clip0_35_71">
<rect width="116" height="68" fill="white"/>
</clipPath>
</defs>
</svg>
