<svg width="116" height="69" viewBox="0 0 116 69" fill="none" xmlns="http://www.w3.org/2000/svg">
<path d="M3.15931 64.7804H0V64.2033H0.274095C0.779008 64.2033 1.13966 63.8571 1.44261 63.0637L4.91929 53.7012H5.79928L5.85698 53.8454L9.86743 63.0637C10.1704 63.7129 10.4733 64.0447 10.8773 64.1601C10.8917 64.1601 10.9205 64.1745 10.9494 64.1745C10.9782 64.1745 11.0359 64.1889 11.0792 64.1889C11.1369 64.1889 11.1946 64.2033 11.2091 64.2033H11.3822V64.7804H7.09763V64.2033H7.29959C7.48713 64.2033 7.57368 64.2033 7.58811 64.2033C7.7468 64.1889 7.84778 64.1312 7.90548 64.0447C8.00647 63.9148 7.97761 63.6696 7.84778 63.3089L6.7514 60.7122H3.15931L2.3226 62.9916C2.16391 63.4965 2.13506 63.8427 2.27932 64.0158C2.33702 64.1024 2.46686 64.2033 2.84193 64.2033H3.14488V64.7804H3.15931ZM3.4334 59.9909H6.46288L4.83273 56.1392L3.4334 59.9909Z" fill="#F2F5F5"/>
<path d="M14.4696 57.0336V57.9136C15.0899 57.3222 15.9122 56.9327 16.6912 56.9038C16.7201 56.9038 16.7633 56.9038 16.7922 56.9038C17.4125 56.9038 17.9751 57.1346 18.3935 57.5674C18.5233 57.6972 18.6243 57.8415 18.7109 58.029C19.3312 57.3799 20.4276 56.9471 21.2499 56.9038C21.2931 56.9038 21.3364 56.9038 21.3797 56.9038C21.9856 56.9038 22.5338 57.1346 22.9666 57.5674C23.3416 57.9569 23.5725 58.5484 23.6013 59.2553V59.2697V60.669C23.6013 61.751 23.6013 63.0637 23.6013 63.0637C23.6013 63.5686 23.6734 63.9004 23.8177 64.0736C23.9043 64.1601 24.0052 64.2034 24.1639 64.2034H24.4524V64.7804H20.9902V64.189H21.2354C21.2931 64.189 21.3508 64.189 21.3941 64.1745C21.4518 64.1601 21.4951 64.1457 21.5528 64.1168C21.5817 64.1024 21.5961 64.088 21.6249 64.0591C21.7692 63.9004 21.8413 63.5686 21.8413 63.0493V63.0349C21.8413 62.429 21.8269 59.4139 21.8269 59.2697C21.8125 58.3753 21.4951 57.9136 20.8748 57.9136C20.0813 57.9136 19.2879 58.4762 18.985 58.8513C19.0138 58.9812 19.0138 59.111 19.0282 59.2408V60.6402C19.0282 61.65 19.0282 62.9051 19.0282 63.0349C19.0282 63.5398 19.1004 63.8716 19.2446 64.0447C19.3312 64.1457 19.4322 64.1745 19.5909 64.1745H19.8794V64.7516H16.4171V64.1745H16.7056C16.8499 64.1745 16.9653 64.1313 17.0519 64.0447C17.1961 63.886 17.2683 63.5542 17.2683 63.0349V63.0205C17.2683 62.4146 17.2538 59.3995 17.2538 59.2553C17.2394 58.3608 16.922 57.8992 16.3017 57.8992C15.2919 57.8992 14.6283 58.7936 14.4552 59.0533V63.0349C14.4552 63.5398 14.5273 63.8716 14.6716 64.0447C14.7581 64.1313 14.8591 64.1745 15.0178 64.1745H15.3063V64.7516H11.8441V64.1601H12.0749C12.1903 64.1601 12.2047 64.1601 12.2047 64.1601C12.3201 64.1457 12.4067 64.1024 12.4788 64.0303C12.6231 63.8716 12.6952 63.5398 12.6952 63.0205V59.2264C12.7096 58.6349 12.6375 58.2454 12.4788 58.0579C12.3922 57.9569 12.2768 57.9425 12.1182 57.9281C12.1037 57.9281 11.9883 57.9281 11.9883 57.9281H11.8008V57.351L12.0027 57.3222L13.9791 56.9904H14.4696V57.0336Z" fill="#F2F5F5"/>
<path d="M31.5932 62.9339C31.4489 63.6696 30.8863 64.1313 30.4391 64.3909C29.9053 64.7083 29.2417 64.8958 28.6647 64.9103C28.6502 64.9103 28.5925 64.9103 28.5781 64.9103C28.2463 64.9103 27.8712 64.867 27.4817 64.7949C27.1499 64.7372 26.2555 64.4631 26.0824 64.3909C26.0247 64.3765 25.967 64.3477 25.9526 64.3477C25.9237 64.3477 25.8804 64.3621 25.8516 64.3765L25.8227 64.3909H25.3755L25.3467 62.0395H25.8804L25.9959 62.2847C26.1545 62.5877 26.3421 62.8906 26.544 63.1647C26.6594 63.309 26.7749 63.4532 26.9191 63.5831C27.0634 63.7129 27.2509 63.8427 27.4817 63.9581C27.8857 64.1601 28.2175 64.2322 28.6791 64.2178C29.083 64.2034 29.4293 64.088 29.7178 63.8572C29.963 63.6552 30.1073 63.3955 30.1217 63.1359C30.1361 62.8473 29.9919 62.5732 29.7033 62.3713C29.3138 62.0972 28.6502 61.8519 28.0588 61.6356L28.0155 61.6211C26.2555 60.9864 25.3611 60.1785 25.3611 59.2553C25.3611 58.5628 25.6641 57.9713 26.2555 57.5386C26.7316 57.1923 27.3952 56.9759 28.1021 56.9182C28.203 56.9038 28.304 56.9038 28.405 56.9038C28.7368 56.9038 29.0686 56.9327 29.4148 57.0048C29.5735 57.0336 29.7322 57.0913 29.8909 57.149C30.0784 57.2212 30.2804 57.2789 30.4679 57.2933C30.4968 57.2933 30.5112 57.2933 30.5401 57.2789L30.5978 57.25H31.0161L31.045 59.3562H30.5401L30.4679 59.2264C30.3237 58.9379 29.9486 58.3753 29.6312 58.0867C29.5447 58.0002 29.4437 57.9281 29.3427 57.8703C29.0109 57.6684 28.708 57.5963 28.3473 57.5963C28.2175 57.5963 28.0876 57.6251 27.9145 57.6684C27.2942 57.8271 26.9768 58.1444 26.9624 58.6205C26.948 59.313 28.0299 59.688 29.0686 60.0631L29.1984 60.1064C29.9919 60.3805 30.641 60.6834 31.1892 61.2605C31.5932 61.6788 31.6797 62.4146 31.5932 62.9339Z" fill="#F2F5F5"/>
<path d="M40.4074 64.2032V64.7803H36.9451V64.2032H37.2337C37.3779 64.2032 37.4933 64.1599 37.5655 64.0734C37.7241 63.9003 37.7963 63.5829 37.7963 63.0636V63.0203C37.7963 62.1836 37.7818 59.4138 37.7818 59.2695C37.7674 58.3751 37.45 57.9135 36.8297 57.9135C35.8199 57.9135 35.1563 58.8079 34.9976 59.0675V63.0491C34.9976 63.554 35.0697 63.8858 35.214 64.059C35.3006 64.1455 35.4015 64.1888 35.5602 64.1888H35.8488V64.7658H32.3865V64.1744H32.574C32.574 64.1744 32.6894 64.1744 32.7039 64.1744C32.8481 64.1744 32.9491 64.1311 33.0212 64.0445C33.1655 63.8714 33.2521 63.554 33.2521 63.0347V56.0381C33.2665 55.4466 33.1944 55.0571 33.0357 54.8696C32.9491 54.7686 32.8337 54.7397 32.6894 54.7397H32.3721V54.1482L32.574 54.1194L34.5504 53.7876H35.012V57.8846C35.6324 57.2931 36.4546 56.9036 37.2337 56.8748C37.2625 56.8748 37.3058 56.8748 37.3346 56.8748C37.955 56.8748 38.5031 57.1056 38.9359 57.5384C39.311 57.9279 39.5418 58.5193 39.5707 59.2262V59.2406V60.64C39.5707 61.6498 39.5707 62.9049 39.5707 63.0347C39.5707 63.5396 39.6428 63.8714 39.7871 64.0445C39.8736 64.1311 39.9746 64.1744 40.1333 64.1744C40.1621 64.1744 40.2343 64.1744 40.2343 64.1744H40.4074V64.2032Z" fill="#F2F5F5"/>
<path d="M45.9038 59.6015C45.9038 59.3707 45.9038 58.8369 45.9038 58.7648C45.9038 58.6494 45.8893 58.5628 45.8461 58.4762C45.7451 58.2454 45.5864 58.0435 45.3412 57.8992C45.0815 57.7405 44.793 57.654 44.49 57.654C44.2736 57.654 44.0861 57.6972 43.8985 57.8126C43.6533 57.9569 43.4802 58.1589 43.3936 58.433C43.3504 58.5484 43.3359 58.6782 43.3215 58.7792V58.808C43.2782 59.0389 43.2349 59.2697 43.0763 59.4572C42.9176 59.6448 42.7012 59.7457 42.4848 59.7457C42.1818 59.7457 41.9366 59.6015 41.8212 59.3562C41.6336 58.9523 41.7779 58.3897 42.0376 58.0579C42.1963 57.8559 42.4127 57.6684 42.6435 57.5097C43.2349 57.1202 43.9851 56.9038 44.7641 56.9038C45.0526 56.9038 45.3556 56.9327 45.6297 56.9904C46.1779 57.1202 46.8847 57.4231 47.2165 57.8126C47.3752 57.9858 47.4906 58.231 47.5628 58.4618C47.6782 58.8513 47.6782 59.2841 47.6782 59.6015C47.6782 59.6448 47.6782 60.2507 47.6782 61.5778V61.6067C47.6782 62.3136 47.6782 63.1214 47.6782 63.1503C47.6782 63.4388 47.6926 63.7706 47.8224 64.0159C47.8657 64.1024 47.9378 64.1601 48.0244 64.189C48.0821 64.2034 48.1254 64.2178 48.1542 64.2178C48.1687 64.2178 48.1687 64.2178 48.1831 64.2178C48.1975 64.2178 48.2264 64.2178 48.2264 64.2178H48.3418V64.8093H46.9713C46.25 64.766 46.0047 64.4342 45.9326 64.1313L45.5143 64.3909C44.8939 64.7372 44.1871 64.9391 43.509 64.9391C43.2638 64.9391 43.0186 64.9103 42.7877 64.8526C42.3261 64.7372 41.8789 64.4198 41.6192 64.0014C41.4605 63.7562 41.3596 63.3811 41.3307 63.1214C41.3163 63.0205 41.3163 62.9195 41.3163 62.8185C41.273 61.7221 42.0087 60.972 42.6435 60.6546C43.4081 60.2795 44.1149 60.1064 44.7353 59.9621H44.7497C45.1392 59.8467 45.5431 59.7457 45.9038 59.6015ZM45.8893 60.4238C45.6152 60.5392 45.3556 60.6113 45.1103 60.6979C44.5044 60.8854 43.9274 61.0729 43.4369 61.6067C43.1917 61.8808 43.0618 62.227 43.0763 62.6021V62.6454C43.0763 62.8185 43.0763 63.2946 43.6677 63.6119C43.7831 63.6696 44.0284 63.7418 44.3746 63.7418C44.7208 63.7418 45.0815 63.6696 45.4566 63.5398C45.6297 63.4821 45.8028 63.3667 45.9038 63.309V60.4238H45.8893Z" fill="#F2F5F5"/>
<path d="M56.9825 64.7804H53.8232V64.2033H54.0973C54.6022 64.2033 54.9629 63.8571 55.2658 63.0637L58.7425 53.7012H59.6225L59.6802 53.8454L63.6907 63.0637C63.9936 63.7129 64.2966 64.0447 64.7005 64.1601C64.7149 64.1601 64.7438 64.1745 64.7726 64.1745C64.8015 64.1745 64.8592 64.1889 64.9025 64.1889C64.9602 64.1889 65.0179 64.2033 65.0323 64.2033H65.2054V64.7804H60.9209V64.2033H61.1228C61.3104 64.2033 61.3969 64.2033 61.4113 64.2033C61.57 64.1889 61.671 64.1312 61.7287 64.0447C61.8297 63.9148 61.8009 63.6696 61.671 63.3089L60.5746 60.7122H56.997L56.1603 62.9916C56.0016 63.4965 55.9727 63.8427 56.117 64.0158C56.1747 64.1024 56.3045 64.2033 56.6796 64.2033H56.9825V64.7804ZM57.2711 59.9909H60.3005L58.6704 56.1392L57.2711 59.9909Z" fill="#F2F5F5"/>
<path d="M70.2407 57.4953V55.894C70.2407 55.3891 70.1686 55.0717 70.0099 54.8986C69.9233 54.7976 69.8079 54.7832 69.6348 54.7832H69.3319V54.1917L71.5102 53.8167H71.9718V63.5831C72.044 64.1313 72.2748 64.2034 72.52 64.2034H72.8085V64.7949H70.7456L70.3994 64.1457C69.8512 64.6506 69.202 64.9103 68.524 64.9103C66.5765 64.9103 65.1627 63.309 65.0762 61.0297C65.0762 60.9143 65.0762 60.8277 65.0762 60.7556C65.1483 58.4474 66.5332 56.8894 68.524 56.8894C69.2886 56.8894 69.8801 57.2212 70.2407 57.4953ZM70.2263 58.4763C70.0532 58.2887 69.5483 57.8415 68.7404 57.8415C68.4519 57.8415 68.1922 57.8992 67.9758 58.0002C67.8171 58.0723 67.6729 58.1877 67.5575 58.332C67.4132 58.5051 67.2978 58.7071 67.1968 58.9523C67.1102 59.1831 67.0381 59.4572 66.9804 59.7746C66.8794 60.4238 66.8794 61.1307 66.9516 61.852C66.9804 62.1693 67.0525 62.4434 67.1391 62.7175C67.2257 62.9772 67.3411 63.208 67.4853 63.3811C67.8171 63.8283 68.3365 63.9293 68.726 63.9293C68.9568 63.9293 69.202 63.886 69.4328 63.8283C69.6492 63.7706 69.8512 63.6552 70.0099 63.5254C70.0676 63.4821 70.1541 63.3956 70.2118 63.309V58.4763H70.2263Z" fill="#F2F5F5"/>
<path d="M76.0398 57.7115C75.9677 57.8413 75.9821 58.0721 76.0975 58.3751L77.8719 62.5731L77.9152 62.4432C78.247 61.5055 79.2424 58.6492 79.2712 58.5771C79.3722 58.2597 79.4443 57.9423 79.3001 57.7259C79.2424 57.6394 79.1125 57.6105 79.0115 57.6105H78.723V57.0335H81.1322V57.6105H80.8869C80.5696 57.6105 80.2666 57.9567 80.0791 58.5193L77.9152 64.7803H76.9919L76.9342 64.636L74.2077 58.2741C73.9624 57.7115 73.7749 57.5961 73.5441 57.5961H73.2988V57.019H76.588V57.5961H76.3139C76.1263 57.6105 76.0831 57.6682 76.0398 57.7115Z" fill="#F2F5F5"/>
<path d="M85.1139 64.2033V64.7804H81.6517V64.2033H81.9402C82.0845 64.2033 82.1999 64.16 82.2864 64.0735C82.4307 63.9148 82.5028 63.583 82.5028 63.0637V59.0965C82.5028 58.5916 82.4307 58.2598 82.272 58.1011C82.1854 58.0001 82.07 57.9857 81.9402 57.9857H81.6084V57.3942L81.8104 57.3654L83.8012 57.0191H84.2628V63.0637C84.2628 63.5686 84.3349 63.9004 84.4936 64.0735C84.5802 64.16 84.6812 64.2033 84.8254 64.2033H85.1139ZM82.2143 55.0716C82.2143 54.509 82.6759 54.0474 83.2386 54.0474C83.8012 54.0474 84.2628 54.509 84.2628 55.0716C84.2628 55.6342 83.8012 56.0959 83.2386 56.0959C82.6759 56.0959 82.2143 55.6342 82.2143 55.0716Z" fill="#F2F5F5"/>
<path d="M92.2689 62.9339C92.1247 63.6696 91.5621 64.1313 91.1149 64.3909C90.5811 64.7083 89.9175 64.8958 89.3405 64.9103C89.326 64.9103 89.2683 64.9103 89.2539 64.9103C88.9221 64.9103 88.547 64.867 88.1575 64.7949C87.8257 64.7372 86.9313 64.4631 86.7582 64.3909C86.7005 64.3765 86.6428 64.3477 86.6284 64.3477C86.5995 64.3477 86.5562 64.3621 86.5274 64.3765L86.4985 64.3909H86.0513L86.0225 62.0395H86.5562L86.6716 62.2847C86.8303 62.5877 87.0179 62.8906 87.2198 63.1647C87.3352 63.309 87.4506 63.4532 87.5949 63.5831C87.7392 63.7129 87.9267 63.8427 88.1575 63.9581C88.5614 64.1601 88.8932 64.2322 89.3549 64.2178C89.7588 64.2034 90.105 64.088 90.3936 63.8572C90.6388 63.6552 90.7831 63.3955 90.7975 63.1359C90.8119 62.8473 90.6677 62.5732 90.3791 62.3713C89.9896 62.0972 89.326 61.8519 88.7346 61.6356L88.6913 61.6211C86.9313 60.9864 86.0369 60.1785 86.0369 59.2553C86.0369 58.5628 86.3398 57.9713 86.9313 57.5386C87.4074 57.1923 88.071 56.9759 88.7778 56.9182C88.8788 56.9038 88.9798 56.9038 89.0808 56.9038C89.4126 56.9038 89.7444 56.9327 90.0906 57.0048C90.2493 57.0336 90.408 57.0913 90.5667 57.149C90.7542 57.2212 90.9562 57.2789 91.1437 57.2933C91.1726 57.2933 91.187 57.2933 91.2158 57.2789L91.2735 57.25H91.6919L91.7208 59.3562H91.2158L91.1437 59.2264C90.9995 58.9379 90.6244 58.3753 90.307 58.0867C90.2204 58.0002 90.1195 57.9281 90.0185 57.8703C89.6867 57.6684 89.3837 57.5963 89.0231 57.5963C88.8932 57.5963 88.7634 57.6251 88.5903 57.6684C87.97 57.8271 87.6526 58.1444 87.6382 58.6205C87.6238 59.313 88.7057 59.688 89.7444 60.0631L89.8742 60.1064C90.6677 60.3805 91.3168 60.6834 91.865 61.2605C92.2689 61.6788 92.3699 62.4146 92.2689 62.9339Z" fill="#F2F5F5"/>
<path d="M100.607 60.871C100.607 62.0251 100.247 62.9916 99.5542 63.7562C98.8474 64.5208 97.9818 64.9103 96.9864 64.9103C95.9766 64.9103 95.111 64.5352 94.4186 63.785C93.7261 63.0349 93.3799 62.0539 93.3799 60.8854C93.3799 59.6736 93.7838 58.6782 94.5772 57.9136C95.2697 57.25 96.1064 56.9038 97.0585 56.9038C98.0107 56.9038 98.8474 57.2789 99.5398 58.0146L99.5542 58.029C100.261 58.7936 100.622 59.7457 100.607 60.871ZM98.8329 61.0152C98.8329 59.8034 98.631 58.8946 98.227 58.3031C97.9241 57.8703 97.5202 57.654 96.972 57.654C96.4671 57.654 96.0776 57.8703 95.7746 58.3031C95.3707 58.8657 95.1687 59.7313 95.1687 60.8565C95.1687 62.0106 95.3851 62.905 95.8035 63.5254C96.1064 63.9581 96.4959 64.1745 96.9864 64.1745C97.5202 64.1745 97.9529 63.9437 98.2992 63.4532C98.6454 62.9339 98.8329 62.126 98.8329 61.0152Z" fill="#F2F5F5"/>
<path d="M104.07 57.0336V57.9858C104.647 57.452 105.527 56.9327 106.349 56.9038C106.464 56.9038 106.565 56.9038 106.681 56.9471C106.868 57.0048 107.07 57.1058 107.2 57.2356C107.33 57.3654 107.417 57.5386 107.417 57.7405C107.431 57.9569 107.359 58.1877 107.229 58.3608C107.085 58.5628 106.883 58.6782 106.652 58.6782C106.637 58.6782 106.609 58.6782 106.594 58.6782C106.378 58.6494 106.176 58.5484 105.988 58.433H105.974C105.887 58.3753 105.801 58.332 105.729 58.3031C105.57 58.2454 105.411 58.2022 105.267 58.2022C105.152 58.2022 105.036 58.231 104.95 58.2743C104.704 58.4041 104.416 58.6638 104.041 59.0677C104.041 60.7267 104.041 63.0782 104.041 63.0782C104.041 63.5975 104.113 63.9149 104.257 64.088C104.344 64.1745 104.445 64.2178 104.603 64.2178H104.892V64.8093H101.43V64.2178H101.675C101.689 64.2178 101.689 64.2178 101.704 64.2178C101.877 64.2178 101.963 64.189 102.064 64.088C102.209 63.9293 102.281 63.6408 102.281 63.1936C102.281 63.107 102.281 59.1543 102.281 59.111C102.281 58.6061 102.209 58.2743 102.05 58.1012C101.963 58.0002 101.834 57.9858 101.661 57.9858H101.43V57.3943L103.594 57.0192H104.07V57.0336Z" fill="#F2F5F5"/>
<path d="M108.268 57.6105H108.022V57.019H111.297V57.6105H111.023C110.85 57.6105 110.792 57.6682 110.763 57.7115C110.691 57.8413 110.706 58.0721 110.821 58.3751L112.639 62.6452C113.014 61.5633 113.995 58.7357 114.038 58.6059C114.139 58.3318 114.24 57.9423 114.096 57.7259C114.067 57.6826 114.009 57.6105 113.822 57.6105H113.533V57.0335H116V57.6249H115.813C115.798 57.6249 115.279 57.6249 115.019 58.2597L112.826 64.5639L112.004 66.8143C111.615 67.8819 110.836 68.5599 110.042 68.5599C109.335 68.5599 108.614 68.1992 108.614 67.4924C108.614 67.276 108.686 67.074 108.816 66.9298C108.96 66.7711 109.162 66.6701 109.379 66.6701C109.739 66.6701 109.941 66.9009 110.114 67.1173C110.244 67.276 110.359 67.4058 110.504 67.4058C110.749 67.4058 110.937 67.1461 111.052 66.9153C111.081 66.872 111.182 66.6124 111.687 65.2996L111.788 65.0111L108.902 58.2885C108.686 57.7259 108.499 57.6105 108.268 57.6105Z" fill="#F2F5F5"/>
<path d="M54.0977 44.18V1.81059C54.9776 1.23355 56.7665 0.238155 59.2333 0.0361902C62.7389 -0.252331 65.3356 1.2624 66.1867 1.81059C66.9657 2.34436 67.99 3.1955 68.8988 4.49384C70.5867 6.88857 70.8319 9.35543 70.8752 10.4807C70.8752 21.7186 70.8752 32.942 70.8752 44.18H65.0326C65.0326 32.9276 65.0326 21.6753 65.0326 10.423C65.0182 9.99018 64.8451 7.45119 62.8399 6.08071C62.6379 5.95088 62.0753 5.59022 61.253 5.40268C59.4353 4.9699 57.5022 5.5758 56.2183 6.98955C56.5934 6.9607 58.5553 6.80201 60.2864 8.23019C60.5173 8.41773 60.7192 8.6197 60.9068 8.82166C60.9645 8.87937 61.3684 9.341 61.7002 9.99018C62.2484 11.0433 62.3494 12.1252 62.3782 12.6157C62.3782 16.2944 62.3782 19.973 62.3782 23.6661C60.3009 23.6661 58.2235 23.6661 56.1317 23.6517V25.3684C58.2091 25.3684 60.3009 25.3684 62.3782 25.3684C62.3782 31.6437 62.3782 37.9046 62.3782 44.18C59.6084 44.18 56.853 44.18 54.0977 44.18Z" fill="#F2F5F5"/>
<path d="M54.1265 1.82495C53.0301 2.89248 52.1212 4.14755 51.5298 5.54687C51.2413 6.23933 51.0681 6.97506 50.9672 7.71078C50.8806 8.46094 50.895 9.2111 50.9239 9.97568C50.9672 10.7403 51.0249 11.5193 50.996 12.2983C50.996 13.0773 50.8806 13.8707 50.6786 14.6353C50.2747 16.1645 49.5101 17.5494 48.558 18.7756C48.0819 19.3959 47.5626 19.9585 47.0433 20.5211C46.5239 21.0838 45.9757 21.6464 45.5862 22.2811C45.3987 22.5985 45.2544 22.9591 45.24 23.3198C45.2256 23.4929 45.2689 23.6804 45.3121 23.8536L45.4131 24.0988L45.5574 24.3296C45.7738 24.6181 46.0912 24.8201 46.4085 25.0076C46.7403 25.1952 47.0866 25.3539 47.4328 25.527C47.779 25.7001 48.1252 25.8876 48.4426 26.1617C48.5147 26.2339 48.6013 26.306 48.6734 26.3781L48.861 26.6378L49.0052 26.9263C49.0485 27.0273 49.0629 27.1427 49.0918 27.2437C49.1783 27.6765 49.1062 28.1237 48.9331 28.4987C48.7744 28.8738 48.5436 29.2201 48.356 29.5374C48.1541 29.8548 47.9665 30.1722 47.9088 30.4895C47.8511 30.7925 47.9377 31.1099 48.1397 31.3551C48.3416 31.6004 48.6301 31.8023 48.9619 31.961C49.2793 32.1197 49.64 32.2351 50.0006 32.3217L50.7652 32.5236L50.0439 32.8698C49.7554 33.0141 49.4957 33.1872 49.2649 33.4036C49.2072 33.4613 49.1495 33.519 49.0918 33.5767L48.9187 33.7643C48.8033 33.8797 48.7023 34.0095 48.6446 34.1249C48.6157 34.1826 48.6013 34.2259 48.5869 34.2836C48.5724 34.3269 48.5724 34.3846 48.5869 34.4134C48.5869 34.4567 48.7023 34.601 48.8033 34.702C49.0341 34.9328 49.2937 35.1636 49.539 35.3944L50.318 36.0724L50.3613 36.1157C50.3901 36.1446 50.419 36.1878 50.4478 36.2167C50.4911 36.2744 50.52 36.3465 50.5344 36.4042C50.5488 36.4619 50.5632 36.5196 50.5777 36.5629C50.5921 36.6206 50.5921 36.6639 50.5921 36.7072C50.6065 36.8947 50.6065 37.0823 50.6065 37.2698C50.5777 37.9767 50.4911 38.6691 50.4334 39.3472C50.3757 40.0252 50.3468 40.7176 50.3901 41.3957C50.419 41.7275 50.4622 42.0593 50.5488 42.3766C50.5921 42.5353 50.6642 42.6796 50.7363 42.8238C50.8085 42.9537 50.9095 43.0835 51.0249 43.1989C51.4865 43.6461 52.1645 43.8625 52.8281 44.0068C53.4917 44.1366 54.1842 44.1799 54.8766 44.1943V44.252C54.1842 44.3097 53.4773 44.3097 52.7848 44.2232C52.0924 44.1366 51.3711 43.9491 50.794 43.4442C50.6498 43.3143 50.5344 43.1701 50.4334 43.0114C50.3324 42.8527 50.2459 42.6796 50.1882 42.5065C50.0583 42.1602 50.0006 41.7996 49.9573 41.4534C49.8852 40.7465 49.8996 40.0396 49.9429 39.3472C49.9718 38.6547 50.0439 37.9623 50.0439 37.2842C50.0439 37.1111 50.0439 36.9524 50.0295 36.8082C50.015 36.736 50.015 36.6639 49.9862 36.6206C49.9862 36.6062 49.9718 36.5918 49.9718 36.5918C49.9718 36.5918 49.9718 36.5773 49.9573 36.5773L49.9141 36.5341L49.1206 35.856C48.861 35.6252 48.5869 35.4088 48.3272 35.1347C48.1974 34.9905 48.0531 34.8751 47.9521 34.5866C47.88 34.3125 47.9521 34.0672 48.0531 33.8652C48.1541 33.6633 48.2839 33.5334 48.3993 33.3892L48.5869 33.1872C48.659 33.1151 48.7167 33.0574 48.7888 32.9853C49.0629 32.7256 49.3803 32.5236 49.7265 32.3649L49.7698 32.9131C49.3803 32.8121 49.0052 32.6823 48.6301 32.4948C48.2695 32.3072 47.9088 32.0764 47.6203 31.7158C47.3462 31.3695 47.2164 30.8646 47.3029 30.4174C47.3895 29.9702 47.6347 29.624 47.8367 29.2922C48.0531 28.9604 48.2695 28.6574 48.4137 28.3401C48.558 28.0227 48.6301 27.6765 48.5724 27.3447C48.5292 27.0129 48.356 26.7099 48.0964 26.4791C47.8367 26.2339 47.5193 26.0463 47.1875 25.8588C46.8557 25.6712 46.5095 25.4981 46.1777 25.2962C45.8459 25.0942 45.5141 24.849 45.2689 24.5027L45.1102 24.2431L45.0092 23.9545C44.9515 23.7526 44.9371 23.5506 44.9515 23.3486C44.9659 22.9447 45.139 22.5552 45.341 22.2234C45.7594 21.5598 46.322 21.026 46.8413 20.449C47.3606 19.8864 47.8656 19.3093 48.3128 18.689C49.1928 17.4484 49.8708 16.0491 50.1882 14.5776C50.5344 13.1061 50.4334 11.5914 50.3757 10.0478C50.3468 9.28323 50.3468 8.48979 50.4623 7.71078C50.5777 6.93178 50.794 6.16719 51.1403 5.46032C51.8039 4.03214 52.8137 2.80592 54.0111 1.83938L54.1265 1.82495Z" fill="#F2F5F5"/>
</svg>
